<?xml version="1.0" encoding="utf-8"?>
<!-- Generator: Adobe Illustrator 24.2.3, SVG Export Plug-In . SVG Version: 6.00 Build 0)  -->
<svg version="1.1" id="Layer_1" xmlns="http://www.w3.org/2000/svg" xmlns:xlink="http://www.w3.org/1999/xlink" x="0px" y="0px"
	 viewBox="0 0 250 100" style="enable-background:new 0 0 250 100;" xml:space="preserve">
<style type="text/css">
	.st0{fill:#FBB03B;}
	.st1{stroke:#000000;stroke-miterlimit:10;}
	.st2{fill:#FFFFFF;stroke:#000000;stroke-width:4;stroke-miterlimit:10;}
	.st3{fill:#FBB03B;stroke:#FBB03B;stroke-width:2;stroke-miterlimit:10;}
	.st4{fill:none;stroke:#FBB03B;stroke-miterlimit:10;}
	.st5{fill:none;}
	.st6{font-family:'AkagiPro-Fat';}
	.st7{font-size:15.0261px;}
</style>
<rect x="109.9" y="27.3" class="st0" width="56" height="22.5"/>
<rect x="106.1" y="24.5" class="st1" width="63.7" height="2.4"/>
<rect x="106.1" y="29.8" class="st1" width="63.7" height="2.4"/>
<rect x="106.1" y="35.3" class="st1" width="63.7" height="2.4"/>
<rect x="106.1" y="40.9" class="st1" width="63.7" height="2.4"/>
<rect x="106.1" y="46.9" class="st1" width="63.7" height="2.4"/>
<path class="st2" d="M150.6,58.6h-25.3c-4.7,0-8.6-3.9-8.6-8.6V24.5c0-4.8,3.9-8.6,8.6-8.6h25.3c4.7,0,8.6,3.9,8.6,8.6v25.4
	C159.3,54.7,155.4,58.6,150.6,58.6z"/>
<rect x="122.8" y="26.3" class="st3" width="12.6" height="9"/>
<rect x="121.5" y="24.5" width="2.5" height="26"/>
<rect x="121.5" y="48.6" width="16.1" height="2.4"/>
<rect x="137.2" y="38.3" width="2.5" height="12.2"/>
<rect x="137.2" y="38.1" width="8.9" height="2.5"/>
<rect x="139" y="43.8" width="11.6" height="2.5"/>
<rect x="137.3" y="48.5" width="8.9" height="2.5"/>
<rect x="146.1" y="35.2" width="2.5" height="5.5"/>
<ellipse class="st4" cx="147.4" cy="33.7" rx="1.5" ry="1.5"/>
<ellipse class="st4" cx="152.1" cy="45.1" rx="1.5" ry="1.5"/>
<ellipse class="st4" cx="147.2" cy="49.8" rx="1.5" ry="1.5"/>
<rect x="101.2" y="65.6" class="st5" width="72.1" height="21.4"/>
<text transform="matrix(0.9957 0 0 1 109.1943 76.5508)" class="st6 st7">THREAD</text>
<g>
	<g>
		<path class="st0" d="M138.7,80c2.5-2.3,5.7-0.9,8.5,0c1,0.4,2,0.5,3,0.4c1.5-0.3,2.7-1,4.2-1c2.4-0.1,4.6,0.8,7.1,0.1
			c2-0.6,3.7-1.8,4.9-3.5c0.4-0.5-0.5-1-0.7-0.5c-1.5,2.1-4.1,3.4-6.7,3.4c-1.4,0-2.6-0.4-4-0.4c-1.2,0-2.2,0.4-3.4,0.6
			c-1.5,0.5-2.9,0.5-4.4,0c-1.2-0.4-2.4-0.9-3.7-1.1c-2-0.3-4,0.1-5.5,1.4C137.6,79.7,138.2,80.4,138.7,80L138.7,80z"/>
	</g>
</g>
</svg>
